<mxfile host="app.diagrams.net" agent="Mozilla/5.0 (Windows NT 10.0; Win64; x64) AppleWebKit/537.36 (KHTML, like Gecko) Chrome/131.0.0.0 Safari/537.36" version="25.0.3">
  <diagram name="第 1 页" id="25DFJYRapXqqSuAqSQ1j">
    <mxGraphModel dx="1877" dy="530" grid="1" gridSize="10" guides="1" tooltips="1" connect="1" arrows="1" fold="1" page="1" pageScale="1" pageWidth="827" pageHeight="1169" math="0" shadow="0">
      <root>
        <mxCell id="0" />
        <mxCell id="1" parent="0" />
        <mxCell id="vBEH541SwYFd2HCMVaQ0-20" value="工作了多少个梁" style="ellipse;whiteSpace=wrap;html=1;labelBackgroundColor=none;fillColor=#F2CC8F;strokeColor=#E07A5F;fontColor=#393C56;" vertex="1" parent="1">
          <mxGeometry x="1130" y="220" width="120" height="80" as="geometry" />
        </mxCell>
        <mxCell id="vBEH541SwYFd2HCMVaQ0-22" value="服务器" style="rounded=0;whiteSpace=wrap;html=1;labelBackgroundColor=none;fillColor=#F2CC8F;strokeColor=#E07A5F;fontColor=#393C56;" vertex="1" parent="1">
          <mxGeometry x="-80" y="160" width="120" height="60" as="geometry" />
        </mxCell>
        <mxCell id="vBEH541SwYFd2HCMVaQ0-23" value="设备客户端" style="rounded=0;whiteSpace=wrap;html=1;labelBackgroundColor=none;fillColor=#F2CC8F;strokeColor=#E07A5F;fontColor=#393C56;" vertex="1" parent="1">
          <mxGeometry x="400" y="160" width="120" height="60" as="geometry" />
        </mxCell>
        <mxCell id="vBEH541SwYFd2HCMVaQ0-24" value="" style="endArrow=none;html=1;rounded=0;labelBackgroundColor=none;fontColor=default;strokeColor=#E07A5F;" edge="1" parent="1">
          <mxGeometry width="50" height="50" relative="1" as="geometry">
            <mxPoint x="-20" y="830" as="sourcePoint" />
            <mxPoint x="-20" y="220" as="targetPoint" />
          </mxGeometry>
        </mxCell>
        <mxCell id="vBEH541SwYFd2HCMVaQ0-25" value="" style="endArrow=none;html=1;rounded=0;labelBackgroundColor=none;fontColor=default;strokeColor=#E07A5F;" edge="1" parent="1">
          <mxGeometry width="50" height="50" relative="1" as="geometry">
            <mxPoint x="460" y="820" as="sourcePoint" />
            <mxPoint x="459.5" y="220" as="targetPoint" />
          </mxGeometry>
        </mxCell>
        <mxCell id="vBEH541SwYFd2HCMVaQ0-26" value="" style="endArrow=classic;html=1;rounded=0;labelBackgroundColor=none;fontColor=default;strokeColor=#E07A5F;" edge="1" parent="1">
          <mxGeometry width="50" height="50" relative="1" as="geometry">
            <mxPoint x="-10" y="280" as="sourcePoint" />
            <mxPoint x="460" y="280" as="targetPoint" />
          </mxGeometry>
        </mxCell>
        <mxCell id="vBEH541SwYFd2HCMVaQ0-27" value="推送设备计划{包括设备计划的今日梁的数量&amp;nbsp; &amp;nbsp;（？？？还要什么要补充的）}" style="text;html=1;align=center;verticalAlign=middle;resizable=0;points=[];autosize=1;strokeColor=none;fillColor=none;labelBackgroundColor=none;fontColor=#393C56;" vertex="1" parent="1">
          <mxGeometry x="-16" y="258" width="430" height="30" as="geometry" />
        </mxCell>
        <mxCell id="vBEH541SwYFd2HCMVaQ0-33" value="" style="html=1;points=[[0,0,0,0,5],[0,1,0,0,-5],[1,0,0,0,5],[1,1,0,0,-5]];perimeter=orthogonalPerimeter;outlineConnect=0;targetShapes=umlLifeline;portConstraint=eastwest;newEdgeStyle={&quot;curved&quot;:0,&quot;rounded&quot;:0};strokeColor=#E07A5F;fontColor=#393C56;fillColor=#F2CC8F;" vertex="1" parent="1">
          <mxGeometry x="530" y="288" width="10" height="80" as="geometry" />
        </mxCell>
        <mxCell id="vBEH541SwYFd2HCMVaQ0-34" value="" style="html=1;verticalAlign=bottom;endArrow=block;curved=0;rounded=0;entryX=0;entryY=0;entryDx=0;entryDy=5;strokeColor=#E07A5F;fontColor=#393C56;fillColor=#F2CC8F;" edge="1" target="vBEH541SwYFd2HCMVaQ0-33" parent="1">
          <mxGeometry relative="1" as="geometry">
            <mxPoint x="460" y="293" as="sourcePoint" />
          </mxGeometry>
        </mxCell>
        <mxCell id="vBEH541SwYFd2HCMVaQ0-35" value="" style="html=1;verticalAlign=bottom;endArrow=open;dashed=1;endSize=8;curved=0;rounded=0;exitX=0;exitY=1;exitDx=0;exitDy=-5;strokeColor=#E07A5F;fontColor=#393C56;fillColor=#F2CC8F;" edge="1" source="vBEH541SwYFd2HCMVaQ0-33" parent="1">
          <mxGeometry relative="1" as="geometry">
            <mxPoint x="460" y="363" as="targetPoint" />
          </mxGeometry>
        </mxCell>
        <mxCell id="vBEH541SwYFd2HCMVaQ0-36" value="开始" style="text;html=1;align=center;verticalAlign=middle;resizable=0;points=[];autosize=1;strokeColor=none;fillColor=none;fontColor=#393C56;" vertex="1" parent="1">
          <mxGeometry x="515" y="318" width="50" height="30" as="geometry" />
        </mxCell>
        <mxCell id="vBEH541SwYFd2HCMVaQ0-37" value="返回开始信号" style="html=1;verticalAlign=bottom;endArrow=open;dashed=1;endSize=8;curved=0;rounded=0;strokeColor=#E07A5F;fontColor=#393C56;fillColor=#F2CC8F;" edge="1" parent="1">
          <mxGeometry relative="1" as="geometry">
            <mxPoint x="450" y="360" as="sourcePoint" />
            <mxPoint x="-20" y="360" as="targetPoint" />
          </mxGeometry>
        </mxCell>
        <mxCell id="vBEH541SwYFd2HCMVaQ0-38" value="" style="endArrow=open;endFill=1;endSize=12;html=1;rounded=0;strokeColor=#E07A5F;fontColor=#393C56;fillColor=#F2CC8F;" edge="1" parent="1">
          <mxGeometry width="160" relative="1" as="geometry">
            <mxPoint x="-16" y="430" as="sourcePoint" />
            <mxPoint x="464" y="430" as="targetPoint" />
          </mxGeometry>
        </mxCell>
        <mxCell id="vBEH541SwYFd2HCMVaQ0-39" value="" style="html=1;points=[[0,0,0,0,5],[0,1,0,0,-5],[1,0,0,0,5],[1,1,0,0,-5]];perimeter=orthogonalPerimeter;outlineConnect=0;targetShapes=umlLifeline;portConstraint=eastwest;newEdgeStyle={&quot;curved&quot;:0,&quot;rounded&quot;:0};strokeColor=#E07A5F;fontColor=#393C56;fillColor=#F2CC8F;" vertex="1" parent="1">
          <mxGeometry x="-100" y="350" width="10" height="80" as="geometry" />
        </mxCell>
        <mxCell id="vBEH541SwYFd2HCMVaQ0-40" value="callback" style="html=1;verticalAlign=bottom;endArrow=block;curved=0;rounded=0;entryX=1;entryY=0;entryDx=0;entryDy=5;strokeColor=#E07A5F;fontColor=#393C56;fillColor=#F2CC8F;" edge="1" target="vBEH541SwYFd2HCMVaQ0-39" parent="1">
          <mxGeometry relative="1" as="geometry">
            <mxPoint x="-20" y="355" as="sourcePoint" />
          </mxGeometry>
        </mxCell>
        <mxCell id="vBEH541SwYFd2HCMVaQ0-41" value="return" style="html=1;verticalAlign=bottom;endArrow=open;dashed=1;endSize=8;curved=0;rounded=0;exitX=1;exitY=1;exitDx=0;exitDy=-5;strokeColor=#E07A5F;fontColor=#393C56;fillColor=#F2CC8F;" edge="1" source="vBEH541SwYFd2HCMVaQ0-39" parent="1">
          <mxGeometry relative="1" as="geometry">
            <mxPoint x="-20" y="425" as="targetPoint" />
          </mxGeometry>
        </mxCell>
        <mxCell id="vBEH541SwYFd2HCMVaQ0-42" value="查询第一个构建的参数信息" style="text;html=1;align=center;verticalAlign=middle;resizable=0;points=[];autosize=1;strokeColor=none;fillColor=none;fontColor=#393C56;" vertex="1" parent="1">
          <mxGeometry x="-190" y="375" width="170" height="30" as="geometry" />
        </mxCell>
        <mxCell id="vBEH541SwYFd2HCMVaQ0-43" value="发送参数包" style="text;html=1;align=center;verticalAlign=middle;resizable=0;points=[];autosize=1;strokeColor=none;fillColor=none;fontColor=#393C56;" vertex="1" parent="1">
          <mxGeometry x="180" y="408" width="80" height="30" as="geometry" />
        </mxCell>
        <mxCell id="vBEH541SwYFd2HCMVaQ0-44" value="确认信号" style="html=1;verticalAlign=bottom;endArrow=open;dashed=1;endSize=8;curved=0;rounded=0;strokeColor=#E07A5F;fontColor=#393C56;fillColor=#F2CC8F;" edge="1" parent="1">
          <mxGeometry relative="1" as="geometry">
            <mxPoint x="454" y="480" as="sourcePoint" />
            <mxPoint x="-16" y="480" as="targetPoint" />
          </mxGeometry>
        </mxCell>
        <mxCell id="vBEH541SwYFd2HCMVaQ0-47" value="完成信号" style="html=1;verticalAlign=bottom;endArrow=open;dashed=1;endSize=8;curved=0;rounded=0;strokeColor=#E07A5F;fontColor=#393C56;fillColor=#F2CC8F;" edge="1" parent="1">
          <mxGeometry relative="1" as="geometry">
            <mxPoint x="451" y="508" as="sourcePoint" />
            <mxPoint x="-19" y="508" as="targetPoint" />
          </mxGeometry>
        </mxCell>
        <mxCell id="vBEH541SwYFd2HCMVaQ0-53" value="" style="html=1;points=[[0,0,0,0,5],[0,1,0,0,-5],[1,0,0,0,5],[1,1,0,0,-5]];perimeter=orthogonalPerimeter;outlineConnect=0;targetShapes=umlLifeline;portConstraint=eastwest;newEdgeStyle={&quot;curved&quot;:0,&quot;rounded&quot;:0};strokeColor=#E07A5F;fontColor=#393C56;fillColor=#F2CC8F;" vertex="1" parent="1">
          <mxGeometry x="-100" y="505" width="10" height="80" as="geometry" />
        </mxCell>
        <mxCell id="vBEH541SwYFd2HCMVaQ0-54" value="callback" style="html=1;verticalAlign=bottom;endArrow=block;curved=0;rounded=0;entryX=1;entryY=0;entryDx=0;entryDy=5;strokeColor=#E07A5F;fontColor=#393C56;fillColor=#F2CC8F;" edge="1" target="vBEH541SwYFd2HCMVaQ0-53" parent="1">
          <mxGeometry relative="1" as="geometry">
            <mxPoint x="-20" y="510" as="sourcePoint" />
          </mxGeometry>
        </mxCell>
        <mxCell id="vBEH541SwYFd2HCMVaQ0-55" value="return" style="html=1;verticalAlign=bottom;endArrow=open;dashed=1;endSize=8;curved=0;rounded=0;exitX=1;exitY=1;exitDx=0;exitDy=-5;strokeColor=#E07A5F;fontColor=#393C56;fillColor=#F2CC8F;" edge="1" source="vBEH541SwYFd2HCMVaQ0-53" parent="1">
          <mxGeometry relative="1" as="geometry">
            <mxPoint x="-20" y="580" as="targetPoint" />
          </mxGeometry>
        </mxCell>
        <mxCell id="vBEH541SwYFd2HCMVaQ0-56" value="查询下一个构建" style="text;html=1;align=center;verticalAlign=middle;resizable=0;points=[];autosize=1;strokeColor=none;fillColor=none;fontColor=#393C56;" vertex="1" parent="1">
          <mxGeometry x="-165" y="538" width="110" height="30" as="geometry" />
        </mxCell>
        <mxCell id="vBEH541SwYFd2HCMVaQ0-57" value="" style="endArrow=open;endFill=1;endSize=12;html=1;rounded=0;strokeColor=#E07A5F;fontColor=#393C56;fillColor=#F2CC8F;" edge="1" parent="1">
          <mxGeometry width="160" relative="1" as="geometry">
            <mxPoint x="-20" y="584" as="sourcePoint" />
            <mxPoint x="460" y="584" as="targetPoint" />
          </mxGeometry>
        </mxCell>
        <mxCell id="vBEH541SwYFd2HCMVaQ0-58" value="。。。。。" style="text;html=1;align=center;verticalAlign=middle;resizable=0;points=[];autosize=1;strokeColor=none;fillColor=none;fontColor=#393C56;" vertex="1" parent="1">
          <mxGeometry x="160" y="600" width="80" height="30" as="geometry" />
        </mxCell>
        <mxCell id="vBEH541SwYFd2HCMVaQ0-59" value="结束" style="html=1;points=[[0,0,0,0,5],[0,1,0,0,-5],[1,0,0,0,5],[1,1,0,0,-5]];perimeter=orthogonalPerimeter;outlineConnect=0;targetShapes=umlLifeline;portConstraint=eastwest;newEdgeStyle={&quot;curved&quot;:0,&quot;rounded&quot;:0};strokeColor=#E07A5F;fontColor=#393C56;fillColor=#F2CC8F;" vertex="1" parent="1">
          <mxGeometry x="535" y="630" width="10" height="80" as="geometry" />
        </mxCell>
        <mxCell id="vBEH541SwYFd2HCMVaQ0-60" value="dispatch" style="html=1;verticalAlign=bottom;endArrow=block;curved=0;rounded=0;entryX=0;entryY=0;entryDx=0;entryDy=5;strokeColor=#E07A5F;fontColor=#393C56;fillColor=#F2CC8F;" edge="1" target="vBEH541SwYFd2HCMVaQ0-59" parent="1">
          <mxGeometry relative="1" as="geometry">
            <mxPoint x="465" y="635" as="sourcePoint" />
          </mxGeometry>
        </mxCell>
        <mxCell id="vBEH541SwYFd2HCMVaQ0-61" value="return" style="html=1;verticalAlign=bottom;endArrow=open;dashed=1;endSize=8;curved=0;rounded=0;exitX=0;exitY=1;exitDx=0;exitDy=-5;strokeColor=#E07A5F;fontColor=#393C56;fillColor=#F2CC8F;" edge="1" source="vBEH541SwYFd2HCMVaQ0-59" parent="1">
          <mxGeometry relative="1" as="geometry">
            <mxPoint x="465" y="705" as="targetPoint" />
          </mxGeometry>
        </mxCell>
        <mxCell id="vBEH541SwYFd2HCMVaQ0-62" value="结束信号" style="html=1;verticalAlign=bottom;endArrow=open;dashed=1;endSize=8;curved=0;rounded=0;strokeColor=#E07A5F;fontColor=#393C56;fillColor=#F2CC8F;" edge="1" parent="1">
          <mxGeometry relative="1" as="geometry">
            <mxPoint x="450" y="710" as="sourcePoint" />
            <mxPoint x="-20" y="710" as="targetPoint" />
            <mxPoint as="offset" />
          </mxGeometry>
        </mxCell>
        <mxCell id="vBEH541SwYFd2HCMVaQ0-63" value="回库操作等" style="html=1;points=[[0,0,0,0,5],[0,1,0,0,-5],[1,0,0,0,5],[1,1,0,0,-5]];perimeter=orthogonalPerimeter;outlineConnect=0;targetShapes=umlLifeline;portConstraint=eastwest;newEdgeStyle={&quot;curved&quot;:0,&quot;rounded&quot;:0};strokeColor=#E07A5F;fontColor=#393C56;fillColor=#F2CC8F;" vertex="1" parent="1">
          <mxGeometry x="-110" y="710" width="10" height="80" as="geometry" />
        </mxCell>
        <mxCell id="vBEH541SwYFd2HCMVaQ0-64" value="callback" style="html=1;verticalAlign=bottom;endArrow=block;curved=0;rounded=0;entryX=1;entryY=0;entryDx=0;entryDy=5;strokeColor=#E07A5F;fontColor=#393C56;fillColor=#F2CC8F;" edge="1" target="vBEH541SwYFd2HCMVaQ0-63" parent="1">
          <mxGeometry relative="1" as="geometry">
            <mxPoint x="-30" y="715" as="sourcePoint" />
          </mxGeometry>
        </mxCell>
        <mxCell id="vBEH541SwYFd2HCMVaQ0-65" value="return" style="html=1;verticalAlign=bottom;endArrow=open;dashed=1;endSize=8;curved=0;rounded=0;exitX=1;exitY=1;exitDx=0;exitDy=-5;strokeColor=#E07A5F;fontColor=#393C56;fillColor=#F2CC8F;" edge="1" source="vBEH541SwYFd2HCMVaQ0-63" parent="1">
          <mxGeometry relative="1" as="geometry">
            <mxPoint x="-30" y="785" as="targetPoint" />
          </mxGeometry>
        </mxCell>
      </root>
    </mxGraphModel>
  </diagram>
</mxfile>
